<svg xmlns="http://www.w3.org/2000/svg" width="81" height="20">
  <path d="M81,3C81,1.344 79.656,0 78,0L3,0C1.344,0 0,1.344 0,3L0,17C0,18.656 1.344,20 3,20L78,20C79.656,20 81,18.656 81,17L81,3Z" style="fill:rgb(52,73,94);"/>
    <path d="M81,3C81,1.344 79.656,0 78,0L40,0C38.344,0 37,1.344 37,3L37,17C37,18.656 38.344,20 40,20L78,20C79.656,20 81,18.656 81,17L81,3Z" style="fill:rgb(231,76,60);"/>
    <rect x="37" y="0" width="4" height="20" style="fill:rgb(231,76,60);fill-rule:nonzero;"/>
    <g>
        <g transform="matrix(1,0,0,1,19.5,14)">
            <text x="-13.353px" y="0px" style="font-family:'Verdana';font-size:11px;fill:white;">build</text>
        </g>
        <g transform="matrix(1,0,0,1,58,14)">
            <text x="-16.672px" y="0px" style="font-family:'Verdana';font-size:11px;fill:white;">failing</text>
        </g>
    </g>
</svg>
