<svg xmlns="http://www.w3.org/2000/svg" width="92" height="20">
  <path d="M92,3C92,1.344 90.656,0 89,0L3,0C1.344,0 0,1.344 0,3L0,17C0,18.656 1.344,20 3,20L89,20C90.656,20 92,18.656 92,17L92,3Z" style="fill:rgb(52,73,94);"/>
    <path d="M92,3C92,1.344 90.656,0 89,0L40,0C38.344,0 37,1.344 37,3L37,17C37,18.656 38.344,20 40,20L89,20C90.656,20 92,18.656 92,17L92,3Z" style="fill:rgb(241,196,15);"/>
    <rect x="37" y="0" width="4" height="20" style="fill:rgb(241,196,15);fill-rule:nonzero;"/>
    <path d="M92,3C92,1.344 90.656,0 89,0L3,0C1.344,0 0,1.344 0,3L0,17C0,18.656 1.344,20 3,20L89,20C90.656,20 92,18.656 92,17L92,3Z" style="fill:rgb(52,73,94);fill-opacity:0.0980392;"/>
    <g>
        <g transform="matrix(1,0,0,1,19.5,14)">
            <text x="-13.353px" y="0px" style="font-family:'Verdana';font-size:11px;fill:white;">build</text>
        </g>
        <g transform="matrix(1,0,0,1,63.5,14)">
            <text x="-22.027px" y="0px" style="font-family:'Verdana';font-size:11px;fill:white;">pending</text>
        </g>
    </g>
</svg>
